#!OML:ASF G:\JayActor3\Patient Classification 1\Patient 1\Session 6\male.ASF
:FULLY-SPECIFIED
:DEGREES
1245
root -30.1331 16.506 -12.0121 180.366 -18.5215 -175.734
lowerback 7.39277 -1.30702 4.4425
upperback 0.406364 -1.40071 0.299286
thorax -3.825 -0.787773 -2.035
lowerneck -4.49691 -3.39776 -0.274296
upperneck -4.63048 -4.66741 5.28647
head -0.541016 -2.46733 1.63879
rclavicle -2.02015e-014 -7.95139e-016
rhumerus -32.3418 0.559759 -83.6814
rradius 38.007
rwrist -5.6754
rhand -26.2992 -11.5175
rfingers 7.12502
rthumb 0.256724 -41.497
lclavicle -2.02015e-014 -7.95139e-016
lhumerus -41.7117 15.2367 63.9921
lradius 18.1234
lwrist 6.52692
lhand -29.7818 13.6146
lfingers 7.12502
lthumb -3.10669 43.5717
rfemur -9.9777 1.02506 26.5381
rtibia 33.3257
rfoot -24.4177 -24.1109
rtoes -0.518279
lfemur -19.6047 25.5796 -4.55221
ltibia 68.3727
lfoot -11.742 -10.8729
ltoes -17.3626
1246
root -30.1746 16.5195 -12.0714 180.377 -18.7835 -175.596
lowerback 7.49683 -1.16734 4.75042
upperback 0.402015 -1.18422 0.326704
thorax -3.8787 -0.687687 -2.20118
lowerneck -4.79508 -3.46467 -0.314517
upperneck -4.34729 -4.76196 5.26903
head -0.400507 -2.50147 1.6277
rclavicle -1.56543e-015 -2.44505e-014
rhumerus -32.1908 0.587932 -83.4694
rradius 37.7643
rwrist -5.64597
rhand -26.1727 -11.5288
rfingers 7.12502
rthumb 0.378993 -41.5082
lclavicle -1.56543e-015 -2.44505e-014
lhumerus -42.0606 13.6177 64.9419
lradius 19.4485
lwrist 9.24224
lhand -29.8294 13.6367
lfingers 7.12502
lthumb -3.15273 43.5932
rfemur -9.34381 1.07466 26.6339
rtibia 32.6189
rfoot -24.705 -24.2353
rtoes 0.00114983
lfemur -21.4912 26.1583 -5.40508
ltibia 68.374
lfoot -12.8495 -9.10533
ltoes -17.0146
1247
root -30.2184 16.5301 -12.1312 180.381 -19.0432 -175.438
lowerback 7.59989 -1.03785 5.06889
upperback 0.393225 -0.979313 0.369514
thorax -3.93521 -0.593924 -2.35655
lowerneck -5.09693 -3.51253 -0.375409
upperneck -4.032 -4.82935 5.241
head -0.250134 -2.52047 1.61693
rclavicle -1.36416e-014 -1.43125e-014
rhumerus -32.1006 0.736718 -83.2764
rradius 37.5952
rwrist -5.68606
rhand -26.0373 -11.5488
rfingers 7.12502
rthumb 0.509752 -41.528
lclavicle -1.36416e-014 -1.43125e-014
lhumerus -42.5066 12.2269 65.7686
lradius 20.792
lwrist 11.8598
lhand -29.658 13.6477
lfingers 7.12502
lthumb -2.9872 43.6065
rfemur -8.72232 1.13051 26.7438
rtibia 31.9434
rfoot -25.0466 -24.335
rtoes 0.600656
lfemur -23.3232 26.6567 -6.3008
ltibia 68.1314
lfoot -13.9054 -7.47451
ltoes -16.6782
1248
root -30.2645 16.5387 -12.1922 180.384 -19.3049 -175.287
lowerback 7.69083 -0.919908 5.37168
upperback 0.385177 -0.791028 0.420312
thorax -3.98327 -0.508171 -2.49359
lowerneck -5.39992 -3.54574 -0.444773
upperneck -3.69222 -4.87594 5.19676
head -0.0927918 -2.52817 1.60294
rclavicle -7.70291e-015 8.74653e-015
rhumerus -32.0374 0.948456 -83.096
rradius 37.4651
rwrist -5.72931
rhand -25.8949 -11.5897
rfingers 7.12502
rthumb 0.647301 -41.5685
lclavicle -7.70291e-015 8.74653e-015
lhumerus -43.0215 11.0526 66.4881
lradius 22.1293
lwrist 14.3383
lhand -29.2814 13.6633
lfingers 7.12502
lthumb -2.62345 43.6269
rfemur -8.10957 1.08796 26.8261
rtibia 31.29
rfoot -25.3267 -24.3432
rtoes 1.13009
lfemur -25.0731 27.027 -7.25654
ltibia 67.6299
lfoot -14.907 -6.01737
ltoes -16.4141
1249
root -30.3131 16.5458 -12.2543 180.389 -19.5639 -175.156
lowerback 7.76816 -0.810327 5.64821
upperback 0.382221 -0.616683 0.474362
thorax -4.01763 -0.428647 -2.61144
lowerneck -5.69263 -3.57031 -0.515145
upperneck -3.34305 -4.90989 5.14389
head 0.0653746 -2.52958 1.58729
rclavicle -6.36111e-015 1.98785e-016
rhumerus -31.9929 1.23345 -82.9272
rradius 37.3829
rwrist -5.82257
rhand -25.7189 -11.5871
rfingers 7.12502
rthumb 0.817227 -41.5653
lclavicle -6.36111e-015 1.98785e-016
lhumerus -43.5754 10.0727 67.1196
lradius 23.4388
lwrist 16.6459
lhand -28.7208 13.6892
lfingers 7.12502
lthumb -2.08207 43.6588
rfemur -7.49969 1.00394 26.8765
rtibia 30.6562
rfoot -25.5642 -24.3011
rtoes 1.61465
lfemur -26.7163 27.2366 -8.2646
ltibia 66.8612
lfoot -15.8407 -4.7845
ltoes -16.0092
1250
root -30.3637 16.5522 -12.3179 180.398 -19.8122 -175.05
lowerback 7.82673 -0.70622 5.88505
upperback 0.385763 -0.454243 0.529383
thorax -4.03408 -0.35382 -2.70504
lowerneck -5.963 -3.58644 -0.581259
upperneck -2.99456 -4.9315 5.08233
head 0.219245 -2.52539 1.56944
rclavicle -3.32964e-015 -7.35503e-015
rhumerus -31.9395 1.56962 -82.7784
rradius 37.3315
rwrist -5.92682
rhand -25.5302 -11.6372
rfingers 7.12502
rthumb 0.999464 -41.6146
lclavicle -3.32964e-015 -7.35503e-015
lhumerus -44.1516 9.25511 67.6829
lradius 24.7067
lwrist 18.7703
lhand -28.0139 13.7159
lfingers 7.12502
lthumb -1.39936 43.691
rfemur -6.89048 0.86774 26.8859
rtibia 30.0344
rfoot -25.7302 -24.2109
rtoes 1.97144
lfemur -28.2239 27.262 -9.30407
ltibia 65.8161
lfoot -16.7076 -3.80323
ltoes -15.6769
1251
root -30.4163 16.5569 -12.3827 180.416 -20.0443 -174.973
lowerback 7.85757 -0.60526 6.07654
upperback 0.398849 -0.302188 0.582994
thorax -4.02464 -0.282426 -2.77373
lowerneck -6.21521 -3.59009 -0.652842
upperneck -2.63449 -4.9352 5.02746
head 0.374046 -2.51237 1.55586
rclavicle -1.48343e-014 5.96354e-015
rhumerus -31.8459 1.9125 -82.6436
rradius 37.2783
rwrist -5.99642
rhand -25.3152 -11.7016
rfingers 7.12502
rthumb 1.20711 -41.678
lclavicle -1.48343e-014 5.96354e-015
lhumerus -44.7313 8.57835 68.1901
lradius 25.9179
lwrist 20.6854
lhand -27.1921 13.7401
lfingers 7.12502
lthumb -0.605664 43.719
rfemur -6.28829 0.674498 26.8501
rtibia 29.4305
rfoot -25.8377 -24.0674
rtoes 2.06249
lfemur -29.5809 27.1303 -10.3413
ltibia 64.5058
lfoot -17.5094 -3.11471
ltoes -15.5857
1252
root -30.4705 16.56 -12.4489 180.442 -20.2519 -174.917
lowerback 7.85966 -0.508291 6.22119
upperback 0.42027 -0.161953 0.63935
thorax -3.99055 -0.215096 -2.81198
lowerneck -6.4295 -3.60065 -0.640908
upperneck -2.30674 -4.95208 4.92001
head 0.509214 -2.50863 1.51237
rclavicle 6.39838e-015 -4.47266e-015
rhumerus -31.7329 2.31651 -82.5269
rradius 37.254
rwrist -6.08125
rhand -25.0714 -11.767
rfingers 7.12502
rthumb 1.44266 -41.7419
lclavicle 6.39838e-015 -4.47266e-015
lhumerus -45.314 8.01163 68.6634
lradius 27.0677
lwrist 22.3854
lhand -26.3071 13.756
lfingers 7.12502
lthumb 0.249102 43.7356
rfemur -5.69771 0.469893 26.7869
rtibia 28.8497
rfoot -25.938 -23.9537
rtoes 1.9024
lfemur -30.7709 26.8307 -11.3405
ltibia 62.9442
lfoot -18.2347 -2.69649
ltoes -15.9891
1253
root -30.5261 16.56 -12.516 180.469 -20.4259 -174.87
lowerback 7.83686 -0.414656 6.32615
upperback 0.449673 -0.0319358 0.700449
thorax -3.9346 -0.151248 -2.82173
lowerneck -6.58957 -3.60834 -0.586812
upperneck -2.01248 -4.96675 4.80208
head 0.623475 -2.50598 1.45996
rclavicle -6.54871e-014 -1.95803e-014
rhumerus -31.5666 2.69983 -82.409
rradius 37.1994
rwrist -6.11093
rhand -24.7772 -11.7641
rfingers 7.12502
rthumb 1.72678 -41.7369
lclavicle -6.54871e-014 -1.95803e-014
lhumerus -45.8969 7.54371 69.1091
lradius 28.15
lwrist 23.8535
lhand -25.4026 13.7542
lfingers 7.12502
lthumb 1.12276 43.731
rfemur -5.12722 0.191778 26.6936
rtibia 28.309
rfoot -26.0528 -23.7794
rtoes 1.60023
lfemur -31.7899 26.4238 -12.2582
ltibia 61.1652
lfoot -18.929 -2.47937
ltoes -17.2929
1254
root -30.5832 16.5566 -12.5842 180.491 -20.5652 -174.837
lowerback 7.79557 -0.326099 6.38691
upperback 0.486868 0.0855626 0.76468
thorax -3.86117 -0.0920727 -2.8018
lowerneck -6.72981 -3.59465 -0.524964
upperneck -1.68888 -4.95313 4.68043
head 0.742824 -2.48881 1.40626
rclavicle 2.54693e-014 1.04362e-014
rhumerus -31.3564 3.07278 -82.2936
rradius 37.129
rwrist -6.08567
rhand -24.4383 -11.7272
rfingers 7.12502
rthumb 2.05403 -41.697
lclavicle 2.54693e-014 1.04362e-014
lhumerus -46.4822 7.15747 69.5386
lradius 29.1646
lwrist 25.0832
lhand -24.5109 13.7388
lfingers 7.12502
lthumb 1.98398 43.7094
rfemur -4.56324 -0.0393343 26.5868
rtibia 27.814
rfoot -26.2509 -23.636
rtoes 1.29025
lfemur -32.6225 25.9078 -13.0811
ltibia 59.199
lfoot -19.5827 -2.41312
ltoes -19.3005
1255
root -30.6418 16.5487 -12.6528 180.5 -20.6541 -174.801
lowerback 7.74734 -0.239835 6.41816
upperback 0.528176 0.196575 0.837265
thorax -3.78028 -0.0353207 -2.75562
lowerneck -6.83013 -3.57192 -0.421252
upperneck -1.35892 -4.92948 4.53563
head 0.85555 -2.46744 1.33933
rclavicle -1.76049e-014 -8.39865e-015
rhumerus -31.1478 3.53221 -82.2024
rradius 37.1155
rwrist -6.08994
rhand -24.074 -11.694
rfingers 7.12502
rthumb 2.40594 -41.6602
lclavicle -1.76049e-014 -8.39865e-015
lhumerus -47.074 6.85841 69.9535
lradius 30.1069
lwrist 26.0579
lhand -23.6522 13.7089
lfingers 7.12502
lthumb 2.81322 43.6701
rfemur -4.00865 -0.196471 26.4882
rtibia 27.3733
rfoot -26.5331 -23.5351
rtoes 1.08946
lfemur -33.2616 25.2899 -13.7701
ltibia 57.0872
lfoot -20.2563 -2.29362
ltoes -22.1404
1256
root -30.7021 16.5367 -12.7221 180.49 -20.6831 -174.765
lowerback 7.68947 -0.152328 6.42103
upperback 0.575999 0.305502 0.913455
thorax -3.68771 0.0212884 -2.68926
lowerneck -6.89305 -3.53113 -0.308736
upperneck -0.999935 -4.88197 4.39049
head 0.970683 -2.4339 1.27227
rclavicle -1.60891e-015 -1.67973e-014
rhumerus -30.8893 3.91911 -82.1047
rradius 37.0686
rwrist -5.98754
rhand -23.6776 -11.621
rfingers 7.12502
rthumb 2.78871 -41.5825
lclavicle -1.60891e-015 -1.67973e-014
lhumerus -47.6699 6.6343 70.3604
lradius 30.9789
lwrist 26.7796
lhand -22.8809 13.6682
lfingers 7.12502
lthumb 3.55813 43.6183
rfemur -3.44726 -0.278828 26.3919
rtibia 26.9734
rfoot -26.8478 -23.4494
rtoes 1.02962
lfemur -33.6906 24.5798 -14.3108
ltibia 54.8738
lfoot -20.9523 -2.12042
ltoes -24.9598
1257
root -30.7637 16.5203 -12.7914 180.452 -20.6503 -174.707
lowerback 7.62924 -0.0620192 6.42142
upperback 0.629324 0.417071 0.997725
thorax -3.58819 0.079337 -2.61308
lowerneck -6.92986 -3.47073 -0.197819
upperneck -0.58721 -4.80838 4.24851
head 1.09856 -2.38631 1.20768
rclavicle -2.13771e-014 -4.81432e-015
rhumerus -30.6486 4.39009 -82.0341
rradius 37.1021
rwrist -5.92905
rhand -23.2815 -11.5662
rfingers 7.12502
rthumb 3.17128 -41.5224
lclavicle -2.13771e-014 -4.81432e-015
lhumerus -48.2649 6.48032 70.7649
lradius 31.7796
lwrist 27.2544
lhand -22.2235 13.6188
lfingers 7.12502
lthumb 4.19291 43.5573
rfemur -2.87536 -0.267138 26.3259
rtibia 26.6032
rfoot -27.1835 -23.3875
rtoes 1.12183
lfemur -33.9317 23.7977 -14.6746
ltibia 52.6133
lfoot -21.6446 -1.813
ltoes -27.2384
1258
root -30.8281 16.5006 -12.8615 180.373 -20.5436 -174.628
lowerback 7.5565 0.0334888 6.43075
upperback 0.698133 0.533682 1.08575
thorax -3.46533 0.140384 -2.5381
lowerneck -6.92403 -3.39919 -0.0804974
upperneck -0.141684 -4.72042 4.10884
head 1.22987 -2.3314 1.14397
rclavicle -8.58284e-014 -3.24267e-015
rhumerus -30.384 4.85809 -81.974
rradius 37.1486
rwrist -5.84163
rhand -22.8994 -11.5216
rfingers 7.12502
rthumb 3.54028 -41.472
lclavicle -8.58284e-014 -3.24267e-015
lhumerus -48.8557 6.38933 71.1735
lradius 32.5101
lwrist 27.5152
lhand -21.7 13.5638
lfingers 7.12502
lthumb 4.69846 43.4917
rfemur -2.25868 -0.216388 26.2699
rtibia 26.2388
rfoot -27.4693 -23.3236
rtoes 1.39222
lfemur -33.9658 22.9677 -14.8655
ltibia 50.3565
lfoot -22.3044 -1.35973
ltoes -28.576
